<svg xmlns="http://www.w3.org/2000/svg" xmlns:xlink="http://www.w3.org/1999/xlink" version="1.1" x="0px" y="0px" width="8.071px" height="8.07px" viewBox="0 0 8.071 8.07" xml:space="preserve" class="style0"><style>.style0{enable-background:	new 0 0 8.071 8.07;}</style><path d="M7.924 6.51L5.45 4.035l2.475-2.475c0.196-0.195 0.196-0.512 0-0.707L7.217 0.1 c-0.195-0.195-0.512-0.195-0.707 0L4.036 2.621L1.561 0.146c-0.195-0.195-0.512-0.195-0.707 0L0.147 0.9 c-0.196 0.195-0.196 0.5 0 0.707l2.475 2.475L0.147 6.51c-0.196 0.195-0.196 0.5 0 0.707l0.707 0.7 c0.195 0.2 0.5 0.2 0.7 0l2.475-2.475L6.51 7.924c0.195 0.2 0.5 0.2 0.7 0l0.707-0.707 C8.121 7 8.1 6.7 7.9 6.51z"/><g></g><g></g><g></g><g></g><g></g><g></g><g></g><g></g><g></g><g></g><g></g><g></g><g></g><g></g><g></g></svg>