<svg xmlns="http://www.w3.org/2000/svg" xmlns:xlink="http://www.w3.org/1999/xlink" version="1.1" x="0px" y="0px" width="16px" height="10px" viewBox="0 0 16 10" xml:space="preserve" class="style0"><style>.style0{enable-background:	new 0 0 16 10;}.style1{fill-rule:	evenodd;clip-rule:	evenodd;}</style><g><path d="M15.5 0h-15C0.224 0 0 0.2 0 0.5v1C0 1.8 0.2 2 0.5 2h15 C15.776 2 16 1.8 16 1.5v-1C16 0.2 15.8 0 15.5 0z" class="style1"/><path d="M15.5 4h-15C0.224 4 0 4.2 0 4.5v1C0 5.8 0.2 6 0.5 6h15 C15.776 6 16 5.8 16 5.5v-1C16 4.2 15.8 4 15.5 4z" class="style1"/><path d="M15.5 8h-15C0.224 8 0 8.2 0 8.5v1C0 9.8 0.2 10 0.5 10h15 c0.276 0 0.5-0.224 0.5-0.5v-1C16 8.2 15.8 8 15.5 8z" class="style1"/></g><g></g><g></g><g></g><g></g><g></g><g></g><g></g><g></g><g></g><g></g><g></g><g></g><g></g><g></g><g></g></svg>