<svg xmlns="http://www.w3.org/2000/svg" xmlns:xlink="http://www.w3.org/1999/xlink" version="1.1" x="0px" y="0px" width="16px" height="16px" viewBox="0 0 16 16" xml:space="preserve" class="style0"><style>.style0{enable-background:	new 0 0 16 16;}.style1{fill-rule:	evenodd;clip-rule:	evenodd;}</style><g><path d="M15.707 14.293l-3.112-3.092c-0.002-0.002-0.004-0.002-0.006-0.004 C13.471 10 14 8.6 14 7c0-3.859-3.141-7-7-7S0 3.1 0 7s3.141 7 7 7c1.575 0 3.025-0.529 4.196-1.41 c0.002 0 0 0 0 0.006l3.093 3.111C14.488 15.9 14.7 16 15 16s0.512-0.098 0.707-0.293 C16.098 15.3 16.1 14.7 15.7 14.293z M7 12c-2.757 0-5-2.243-5-5s2.243-5 5-5s5 2.2 5 5S9.757 12 7 12z" class="style1"/></g><g></g><g></g><g></g><g></g><g></g><g></g><g></g><g></g><g></g><g></g><g></g><g></g><g></g><g></g><g></g></svg>